<?xml version="1.0" encoding="UTF-8" standalone="no"?>
<!-- Generator: Adobe Illustrator 14.0.0, SVG Export Plug-In . SVG Version: 6.00 Build 43363)  -->

<svg
   xmlns:dc="http://purl.org/dc/elements/1.1/"
   xmlns:cc="http://creativecommons.org/ns#"
   xmlns:rdf="http://www.w3.org/1999/02/22-rdf-syntax-ns#"
   xmlns:svg="http://www.w3.org/2000/svg"
   xmlns="http://www.w3.org/2000/svg"
   xmlns:sodipodi="http://sodipodi.sourceforge.net/DTD/sodipodi-0.dtd"
   xmlns:inkscape="http://www.inkscape.org/namespaces/inkscape"
   version="1.0"
   id="Layer_1"
   x="0px"
   y="0px"
   width="300"
   height="132.61041"
   viewBox="0 0 300 132.61042"
   enable-background="new 0 0 100 44.203"
   xml:space="preserve"
   inkscape:version="0.48.3.1 r9886"
   sodipodi:docname="airplane_2.svg"><metadata
   id="metadata9"><rdf:RDF><cc:Work
       rdf:about=""><dc:format>image/svg+xml</dc:format><dc:type
         rdf:resource="http://purl.org/dc/dcmitype/StillImage" /><dc:title></dc:title><cc:license
         rdf:resource="http://creativecommons.org/licenses/publicdomain/" /></cc:Work><cc:License
       rdf:about="http://creativecommons.org/licenses/publicdomain/"><cc:permits
         rdf:resource="http://creativecommons.org/ns#Reproduction" /><cc:permits
         rdf:resource="http://creativecommons.org/ns#Distribution" /><cc:permits
         rdf:resource="http://creativecommons.org/ns#DerivativeWorks" /></cc:License></rdf:RDF></metadata><defs
   id="defs7" /><sodipodi:namedview
   pagecolor="#ffffff"
   bordercolor="#666666"
   borderopacity="1"
   objecttolerance="10"
   gridtolerance="10"
   guidetolerance="10"
   inkscape:pageopacity="0"
   inkscape:pageshadow="2"
   inkscape:window-width="731"
   inkscape:window-height="480"
   id="namedview5"
   showgrid="false"
   fit-margin-top="0"
   fit-margin-left="0"
   fit-margin-right="0"
   fit-margin-bottom="0"
   inkscape:zoom="3.38"
   inkscape:cx="149.99933"
   inkscape:cy="66.305243"
   inkscape:window-x="0"
   inkscape:window-y="0"
   inkscape:window-maximized="0"
   inkscape:current-layer="Layer_1" />
<path
   clip-rule="evenodd"
   d="m 45.122701,42.402308 23.226286,-9.702119 105.502293,1.479018 70.03286,-27.0183318 0,0 c 4.72806,-1.935024 8.87711,-3.390042 12.68716,-4.461055 3.78305,-1.068013 5.56207,-1.70402095 9.96612,-2.02202495 4.32305,-0.402005 10.94114,-1.128014 15.9842,-0.294004 4.92906,0.66900895 10.88413,2.23202795 13.66517,5.01906195 2.78403,2.889036 5.46906,7.5240928 2.55003,11.9011458 -3.15304,4.167052 -2.77804,5.67607 -20.85326,13.344165 -18.27922,7.710095 -46.77357,18.216224 -87.16307,32.319397 l 0,0 -38.09747,56.115689 -36.00044,13.52717 22.65628,-51.717639 -54.051666,16.443202 0,0 C 65.723955,91.896917 49.448755,86.50885 35.528583,81.177785 21.551412,75.732718 7.6282398,69.768644 2.3871758,65.30459 c -5.124064,-4.452055 -0.885011,-8.91311 2.349029,-10.56613 3.186039,-1.671021 3.981049,-1.998025 16.5602032,0.615007 12.654156,2.514031 31.794391,7.416091 58.404719,14.679181 l 0,0 35.142433,-11.757145 0,0 C 91.608273,53.001439 68.375987,47.706373 45.122701,42.402308 l 0,0 z"
   id="path3"
   inkscape:connector-curvature="0"
   style="fill-rule:evenodd" />
</svg>